<svg width="21" height="21" viewBox="0 0 21 21" fill="none" xmlns="http://www.w3.org/2000/svg">
<g clip-path="url(#clip0_31_238)">
<path d="M11.9774 4.59766C7.86499 4.59766 4.353 7.15557 2.93011 10.7662C4.353 14.3769 7.86499 16.9348 11.9774 16.9348C16.0898 16.9348 19.6018 14.3769 21.0247 10.7662C19.6018 7.15557 16.0898 4.59766 11.9774 4.59766ZM11.9774 14.8786C9.70734 14.8786 7.86499 13.0363 7.86499 10.7662C7.86499 8.49621 9.70734 6.65385 11.9774 6.65385C14.2474 6.65385 16.0898 8.49621 16.0898 10.7662C16.0898 13.0363 14.2474 14.8786 11.9774 14.8786ZM11.9774 8.29881C10.6121 8.29881 9.50995 9.40093 9.50995 10.7662C9.50995 12.1316 10.6121 13.2337 11.9774 13.2337C13.3427 13.2337 14.4448 12.1316 14.4448 10.7662C14.4448 9.40093 13.3427 8.29881 11.9774 8.29881Z" fill="white"/>
</g>
<defs>
<clipPath id="clip0_31_238">
<rect width="19.7395" height="19.7395" fill="white" transform="translate(0.791687 0.896484)"/>
</clipPath>
</defs>
</svg>
